<?xml version="1.0" encoding="utf-8"?>
<!-- Generator: Adobe Illustrator 19.0.0, SVG Export Plug-In . SVG Version: 6.00 Build 0)  -->
<svg version="1.1" id="Layer_1" xmlns="http://www.w3.org/2000/svg" xmlns:xlink="http://www.w3.org/1999/xlink" x="0px" y="0px"
	 viewBox="-43 166.9 508 508" style="enable-background:new -43 166.9 508 508;" xml:space="preserve">
<style type="text/css">
	.st0{fill:#324A5E;}
	.st1{fill:#C5C9F7;}
	.st2{fill:#A8AFF1;}
	.st3{fill:#FD003A;}
	.st4{fill:#E50027;}
	.st5{fill:#E1E4FB;}
	.st6{fill:#C1001F;}
</style>
<circle class="st0" cx="211" cy="420.9" r="254"/>
<g>
	<path class="st1" d="M218.9,391.2l-11.7-8.7l-60.2-61l6.6-6.4c4.3-4.3,3.6-11.7-1.7-14.9L101.3,270c-13.2-7.7-29.9-5.6-41,5.1
		c-10.5,10.9-12.6,27.7-4.9,41l30.3,50.3c3,4.9,10.2,6.4,14.7,1.7l6.6-6.4l59.7,59.9l9.6,12.4c3.6,4.5,10.2,4.9,14.1,0.8l29.4-29.4
		C223.8,401.4,223.3,394.8,218.9,391.2z"/>
	<path class="st1" d="M286.1,444.5l-37.8-29.4c-3.8-2.8-9-2.4-12.4,0.9l-17.5,17.5l-17.5,17.3c-3.4,3.2-3.8,8.7-0.9,12.4l29.6,38
		c3.6,4.3,10.2,4.9,14.1,0.8l21.2-22.3l22.1-21.1C291,454.6,290.5,448,286.1,444.5z"/>
</g>
<g>
	<path class="st2" d="M219.7,405.3L205,420L60.3,275.1c11.1-10.7,27.9-12.8,41-5.1l50.6,30.3c5.3,3.2,6,10.5,1.7,14.9l-6.6,6.4
		l60.2,61l11.7,8.7C223.3,394.8,223.8,401.4,219.7,405.3z"/>
	<path class="st2" d="M286.9,458.6l-22.1,21.1l-46.5-46.2l17.5-17.5c3.4-3.4,8.7-3.8,12.4-0.9l37.8,29.4
		C290.5,448,291,454.6,286.9,458.6z"/>
</g>
<path class="st3" d="M358,506.4c-34.4-34.4-17.5-19.6-78.4-67.1l-27.5,27.7l-27.7,27.7c48.4,61.7,34,45.2,65.6,76.7
	c9.8,10,23,15.1,35.8,15.1c9.4,0,18.6-2.8,26.4-8.3c2.1-1.5,4.1-3.2,5.8-5.3c7.9-7.7,12.8-18.1,13.7-29.2
	C372.9,529.8,368,516.2,358,506.4z"/>
<path class="st4" d="M371.7,543.7c-0.9,11.1-5.8,21.5-13.7,29.2L252.1,467.1l27.5-27.7c61,47.4,44,32.6,78.4,67.1
	C368,516.2,372.9,529.8,371.7,543.7z"/>
<path class="st5" d="M365.5,302.7c-1.3-2.6-4-4.7-7-5.1c-3-0.6-6,0.4-8.1,2.6l-24.3,24.3c-3.6,3.4-9.8,3.4-13.4,0h-0.2
	c-3.6-3.8-3.6-9.6,0-13.4l24.5-24.5c2.3-2.1,3.2-5.3,2.6-8.3c-0.6-3-2.4-5.5-5.3-6.8c-25.2-12-55.5-6.8-74.9,13
	c-18.3,18.1-24.1,44.8-15.6,68.5L138.6,458.7c-23.7-8.3-50.6-2.6-68.9,15.4c-19.6,19.8-24.7,50.1-12.6,75.1c2.8,5.8,10.5,7,15.1,2.4
	l24.3-24.3c3.8-3.6,9.6-3.6,13.4,0.2c3.8,3.6,4,9.2,0,13.2L85.6,565c-4.7,4.5-3.4,12.2,2.4,15.1c9,4.3,18.8,6.4,28.4,6.4
	c17.1,0,34.1-6.6,46.9-19.2c17.9-18.3,23.7-45.2,15.2-68.7L284,393.3c23.7,8.5,50.4,2.6,68.5-15.6
	C372.3,358.1,377.5,328,365.5,302.7z"/>
<path class="st1" d="M352.5,377.7c-18.1,18.3-44.8,24.1-68.5,15.6L178.5,498.6c8.5,23.5,2.6,50.4-15.2,68.7
	c-12.8,12.6-29.7,19.2-46.9,19.2c-9.6,0-19.4-2.1-28.4-6.4c-5.8-2.8-7.2-10.5-2.4-15.1l24.3-24.3c4-4,3.8-9.6,0-13.2l202.9-203
	c3.6,3.4,9.8,3.4,13.4,0l24.3-24.3c2.1-2.3,5.1-3.2,8.1-2.6c3,0.4,5.6,2.4,7,5.1C377.5,328,372.3,358.1,352.5,377.7z"/>
<path class="st4" d="M330.5,545.4c-3.4,2.6-8.3,3.4-12.4-0.8L280.4,507c-4.1-4.1-3.4-9-0.8-12.4c3.2-4,9.2-5.5,13.9-0.8l37.6,37.6
	C336,536.2,334.5,542.2,330.5,545.4z"/>
<path class="st6" d="M330.5,545.4l-50.8-50.8c3.2-4,9.2-5.5,13.9-0.8l37.6,37.6C336,536.2,334.5,542.2,330.5,545.4z"/>
</svg>
